<svg width="381" height="597" viewBox="0 0 381 597" fill="none" xmlns="http://www.w3.org/2000/svg">
<g opacity="0.1">
<path d="M82.101 582.819C82.243 582.819 82.385 582.819 82.527 582.678L323.918 440.872L324.06 440.731L324.202 440.589L380.858 355.789L381 355.648V355.506V355.364V355.222V355.08L324.202 99.8309C324.202 99.6891 324.06 99.5473 323.918 99.4055C323.776 99.4055 323.634 99.2637 323.492 99.2637H323.35L194.561 135.282C194.135 135.424 193.993 135.849 194.135 136.133C194.277 136.558 194.561 136.7 194.845 136.7H194.987L322.924 100.824L379.296 354.088L221.398 294.246L129.527 163.927C129.385 163.643 129.101 163.643 128.959 163.643C128.817 163.643 128.675 163.643 128.533 163.785C128.249 164.069 128.107 164.494 128.391 164.778L219.126 293.395L64.0677 234.688L60.8018 174.279L153.95 148.186C154.234 148.186 154.376 147.903 154.376 147.903C154.376 147.761 154.518 147.619 154.376 147.336C154.234 146.91 153.95 146.768 153.666 146.768H153.524L60.6598 172.719L54.5541 59.8418L103.968 130.035C104.11 130.319 104.394 130.319 104.536 130.319C104.678 130.319 104.82 130.319 104.962 130.177C105.246 129.894 105.388 129.468 105.104 129.185L54.2701 57.0057C54.1281 56.8639 53.9861 56.7221 53.7021 56.7221C53.5601 56.7221 53.5601 56.7221 53.4181 56.7221C53.1341 56.8639 52.9921 57.1475 52.9921 57.4311L59.2399 173.144L-31.4948 198.527L-31.7787 198.669H-31.9207L-32.0627 198.811L-32.2047 198.953L-145.801 440.022C-145.943 440.305 -145.943 440.447 -145.801 440.731C-145.659 440.872 -145.517 441.014 -145.233 441.014H14.0856C14.5116 441.014 14.7955 440.731 14.7955 440.305C14.7955 439.88 14.5116 439.596 14.0856 439.596H-143.955L-31.0688 200.087L62.6478 235.538L71.1674 394.077C71.1674 394.502 71.4514 394.786 71.8774 394.786C72.3034 394.786 72.5874 394.36 72.5874 394.077L64.0677 236.248L220.546 295.522L322.072 439.596H75.0013L74.8593 436.618C74.8593 436.193 74.5753 435.909 74.1493 435.909C73.7234 435.909 73.4394 436.335 73.4394 436.618L73.5814 439.596H56.684C56.258 439.596 55.974 439.88 55.974 440.305C55.974 440.731 56.258 441.014 56.684 441.014H73.7234L81.3911 582.11C81.3911 582.394 81.5331 582.536 81.8171 582.678C81.959 582.819 81.959 582.819 82.101 582.819ZM82.811 580.976L75.2853 441.014H320.936L82.811 580.976ZM379.154 355.506L323.492 439.029L222.96 296.373L379.154 355.506ZM62.5058 234.12L-29.2228 199.378L59.3819 174.562L62.5058 234.12Z" fill="white"/>
<path d="M209.896 58.1401C225.942 58.1401 239.005 45.0941 239.005 29.0701C239.005 13.0461 225.942 0 209.896 0C193.851 0 180.788 13.0461 180.788 29.0701C180.788 45.0941 193.851 58.1401 209.896 58.1401ZM209.896 1.41805C225.232 1.41805 237.585 13.7551 237.585 29.0701C237.585 44.385 225.232 56.7221 209.896 56.7221C194.561 56.7221 182.207 44.385 182.207 29.0701C182.207 13.7551 194.703 1.41805 209.896 1.41805Z" fill="white"/>
<path d="M25.3032 398.473C25.4452 398.473 25.7292 398.331 25.8712 398.189C26.0132 398.047 26.0132 397.905 26.0132 397.764C26.0132 397.622 25.8712 397.338 25.7292 397.196C25.5872 397.055 25.4452 397.055 25.3032 397.055C25.1612 397.055 24.8773 397.055 24.7353 397.196C24.5933 397.338 24.4513 397.48 24.4513 397.764C24.4513 397.905 24.5933 398.189 24.5933 398.189C24.8773 398.331 25.1612 398.473 25.3032 398.473Z" fill="white"/>
<path d="M25.3032 355.931C25.4452 355.931 25.7292 355.789 25.8712 355.648C26.0132 355.506 26.0132 355.364 26.0132 355.222C26.0132 355.08 25.8712 354.797 25.7292 354.655C25.5872 354.513 25.4452 354.513 25.3032 354.513C25.1612 354.513 24.8773 354.513 24.7353 354.655C24.5933 354.797 24.4513 354.938 24.4513 355.222C24.4513 355.364 24.5933 355.648 24.5933 355.648C25.0193 355.789 25.1612 355.931 25.3032 355.931Z" fill="white"/>
<path d="M25.3032 313.39C25.4452 313.39 25.7292 313.248 25.7292 313.106C25.8712 312.964 26.0132 312.822 26.0132 312.681C26.0132 312.539 25.8712 312.255 25.7292 312.113C25.5872 311.972 25.4452 311.971 25.3032 311.971C25.1612 311.971 24.8773 311.972 24.7353 312.113C24.5933 312.255 24.4513 312.397 24.4513 312.681C24.4513 312.822 24.5933 313.106 24.5933 313.106C24.8773 313.248 25.1612 313.39 25.3032 313.39Z" fill="white"/>
</g>
</svg>
