<svg width="728" height="804" viewBox="0 0 728 804" fill="none" xmlns="http://www.w3.org/2000/svg">
<g opacity="0.1">
<path d="M325.785 784.903C325.976 784.903 326.167 784.903 326.358 784.712L651.187 593.738L651.378 593.547L651.57 593.356L727.809 479.153L728 478.962V478.771V478.581V478.39V478.199L651.57 134.446C651.57 134.255 651.378 134.064 651.187 133.873C650.996 133.873 650.805 133.682 650.614 133.682H650.423L477.117 182.189C476.544 182.38 476.353 182.953 476.544 183.335C476.735 183.908 477.117 184.099 477.499 184.099H477.69L649.85 135.782L725.707 476.862L513.23 396.271L389.604 220.766C389.413 220.384 389.031 220.384 388.84 220.384C388.649 220.384 388.458 220.384 388.267 220.575C387.885 220.957 387.693 221.53 388.076 221.912L510.173 395.125L301.518 316.062L297.123 234.707L422.469 199.568C422.851 199.568 423.043 199.186 423.043 199.186C423.043 198.995 423.234 198.804 423.043 198.422C422.851 197.849 422.469 197.658 422.087 197.658H421.896L296.932 232.606L288.716 80.591L355.21 175.123C355.402 175.505 355.784 175.505 355.975 175.505C356.166 175.505 356.357 175.505 356.548 175.314C356.93 174.932 357.121 174.359 356.739 173.977L288.334 76.7715C288.143 76.5805 287.952 76.3895 287.57 76.3895C287.378 76.3895 287.378 76.3895 287.187 76.3895C286.805 76.5805 286.614 76.9624 286.614 77.3444L295.022 233.179L172.924 267.363L172.542 267.554H172.351L172.16 267.745L171.969 267.936L19.1076 592.592C18.9166 592.974 18.9166 593.165 19.1076 593.547C19.2987 593.738 19.4897 593.929 19.8719 593.929H234.259C234.833 593.929 235.215 593.547 235.215 592.974C235.215 592.401 234.833 592.019 234.259 592.019H21.5916L173.497 269.464L299.607 317.208L311.072 530.716C311.072 531.289 311.454 531.671 312.027 531.671C312.601 531.671 312.983 531.098 312.983 530.716L301.518 318.162L512.084 397.99L648.703 592.019H316.231L316.04 588.009C316.04 587.436 315.658 587.054 315.085 587.054C314.511 587.054 314.129 587.627 314.129 588.009L314.32 592.019H291.582C291.009 592.019 290.627 592.401 290.627 592.974C290.627 593.547 291.009 593.929 291.582 593.929H314.511L324.829 783.948C324.829 784.33 325.02 784.521 325.403 784.712C325.594 784.903 325.594 784.903 325.785 784.903ZM326.74 782.42L316.613 593.929H647.175L326.74 782.42ZM725.516 478.771L650.614 591.255L515.332 399.135L725.516 478.771ZM299.416 315.298L175.981 268.509L295.213 235.089L299.416 315.298Z" fill="#6CA2FA"/>
<path d="M39.1706 804C60.7622 804 78.3412 786.43 78.3412 764.85C78.3412 743.27 60.7622 725.701 39.1706 725.701C17.579 725.701 0 743.27 0 764.85C0 786.43 17.579 804 39.1706 804ZM39.1706 727.61C59.8068 727.61 76.4304 744.225 76.4304 764.85C76.4304 785.476 59.8068 802.09 39.1706 802.09C18.5344 802.09 1.91076 785.476 1.91076 764.85C1.91076 744.225 18.7255 727.61 39.1706 727.61Z" fill="#6CA2FA"/>
<path d="M497.753 78.2993C519.345 78.2993 536.924 60.7297 536.924 39.1496C536.924 17.5696 519.345 0 497.753 0C476.162 0 458.583 17.5696 458.583 39.1496C458.583 60.7297 476.162 78.2993 497.753 78.2993ZM497.753 1.90974C518.389 1.90974 535.013 18.5245 535.013 39.1496C535.013 59.7748 518.389 76.3895 497.753 76.3895C477.117 76.3895 460.493 59.7748 460.493 39.1496C460.493 18.5245 477.308 1.90974 497.753 1.90974Z" fill="#6CA2FA"/>
<path d="M134.709 536.637C134.9 536.637 135.282 536.446 135.473 536.255C135.664 536.064 135.664 535.873 135.664 535.682C135.664 535.491 135.473 535.109 135.473 534.918C135.282 534.727 135.091 534.727 134.709 534.727C134.518 534.727 134.135 534.727 133.944 534.918C133.753 535.109 133.562 535.3 133.562 535.682C133.562 535.873 133.753 536.255 133.753 536.255C134.327 536.446 134.518 536.637 134.709 536.637Z" fill="#6CA2FA"/>
<path d="M192.031 536.637C192.223 536.637 192.605 536.446 192.605 536.255C192.796 536.064 192.987 535.873 192.987 535.682C192.987 535.491 192.796 535.109 192.796 535.109C192.605 534.918 192.414 534.918 192.031 534.918C191.84 534.918 191.458 534.918 191.267 535.109C191.076 535.3 190.885 535.491 190.885 535.873C190.885 536.064 191.076 536.446 191.076 536.446C191.458 536.446 191.84 536.637 192.031 536.637Z" fill="#6CA2FA"/>
<path d="M249.354 536.637C249.545 536.637 249.928 536.446 250.119 536.255C250.31 536.064 250.31 535.873 250.31 535.682C250.31 535.491 250.119 535.109 249.928 534.918C249.736 534.727 249.545 534.727 249.354 534.727C249.163 534.727 248.781 534.727 248.59 534.918C248.399 535.109 248.208 535.3 248.208 535.682C248.208 535.873 248.399 536.255 248.399 536.255C248.781 536.446 249.163 536.637 249.354 536.637Z" fill="#6CA2FA"/>
<path d="M249.354 479.344C249.545 479.344 249.928 479.153 250.119 478.962C250.31 478.772 250.31 478.581 250.31 478.39C250.31 478.199 250.119 477.817 249.928 477.626C249.736 477.435 249.545 477.435 249.354 477.435C249.163 477.435 248.781 477.435 248.59 477.626C248.399 477.817 248.208 478.008 248.208 478.39C248.208 478.581 248.399 478.962 248.399 478.962C248.972 479.153 249.163 479.344 249.354 479.344Z" fill="#6CA2FA"/>
<path d="M249.354 422.052C249.545 422.052 249.928 421.861 249.928 421.67C250.119 421.479 250.31 421.288 250.31 421.097C250.31 420.906 250.119 420.524 249.928 420.334C249.736 420.143 249.545 420.143 249.354 420.143C249.163 420.143 248.781 420.143 248.59 420.334C248.399 420.524 248.208 420.715 248.208 421.097C248.208 421.288 248.399 421.67 248.399 421.67C248.781 421.861 249.163 422.052 249.354 422.052Z" fill="#6CA2FA"/>
</g>
</svg>
